<svg xmlns="http://www.w3.org/2000/svg" xmlns:xlink="http://www.w3.org/1999/xlink" xmlns:s="https://github.com/nturley/netlistsvg" width="425" height="514">
  <style>svg {  stroke: #000;  fill: none;  stroke-linejoin: round;  stroke-linecap: round;}text {  fill: #000;  stroke: none;  font-size: 10px;  font-weight: bold;  font-family: "Courier New", monospace;}.skidl_text {  fill: #999;  stroke: none;  font-weight: bold;  font-family: consolas, "Courier New", monospace;}.pin_num_text {    fill: #840000;}.pin_name_text {    fill: #008484;}.net_name_text {    font-style: italic;    fill: #840084;}.part_text {    fill: #840000;}.part_ref_text {    fill: #008484;}.part_name_text {    fill: #008484;}.pen_fill {    fill: #840000;}.background_fill {    fill: #FFFFC2}.nodelabel {  text-anchor: middle;}.inputPortLabel {  text-anchor: end;}.splitjoinBody {  fill: #000;}.symbol {  stroke-linejoin: round;  stroke-linecap: round;  stroke: #840000;}.detail {  stroke-linejoin: round;  stroke-linecap: round;  fill: #000;}</style>
  <g s:type="GND_1_" s:width="30.0" s:height="30.0" id="cell_#PWR1" transform="translate(329,369)">
    <s:alias val="GND_1_"/>
    <g transform="translate(15.0,-0.0)">
      <path d="M 0.0 0.0 L 0.0 15.0 L 15.0 15.0 L 0.0 30.0 L -15.0 15.0 L 0.0 15.0" style="stroke-width:1.0" class="cell_#PWR1 symbol "/>
      <text class="part_name_text" text-anchor="middle" x="0.0" y="45.0" transform="rotate(0 0.0 45.0) translate(0.0 7.5)" style="font-size:15.0px" s:attribute="value">GND</text>
    </g>
    <g s:x="15.0" s:y="-12.0" s:pid="1" s:position="top"/>
  </g>
  <g s:type="VCC_1_" s:width="18.0" s:height="30.0" id="cell_#PWR2" transform="translate(172,111)">
    <s:alias val="VCC_1_"/>
    <g transform="translate(9.0,30.0)">
      <path d="M -9.0 -15.0 L 0.0 -30.0" style="stroke-width:1.0" class="cell_#PWR2 symbol "/>
      <path d="M 0.0 0.0 L 0.0 -30.0" style="stroke-width:1.0" class="cell_#PWR2 symbol "/>
      <path d="M 0.0 -30.0 L 9.0 -15.0" style="stroke-width:1.0" class="cell_#PWR2 symbol "/>
      <text class="part_name_text" text-anchor="middle" x="0.0" y="-45.0" transform="rotate(0 0.0 -45.0) translate(0.0 7.5)" style="font-size:15.0px" s:attribute="value">VCC</text>
    </g>
    <g s:x="9.0" s:y="42.0" s:pid="1" s:position="bottom"/>
  </g>
  <g s:type="Q_PNP_CBE_1_V" s:width="120.3" s:height="144.0" id="cell_Q1" transform="translate(34,173)">
    <s:alias val="Q_PNP_CBE_1_V"/>
    <g transform="translate(72.0,72.0)">
      <path d="M 27.0 -21.0 L 21.0 -27.0 L 15.0 -15.0 L 27.0 -21.0 L 27.0 -21.0" style="stroke-width:1.0" class="cell_Q1 symbol pen_fill"/>
      <circle cx="15.0" cy="0.0" r="33.3" style="stroke-width:3.0" class="cell_Q1 symbol "/>
      <path d="M 7.5 7.5 L 30.0 30.0" style="stroke-width:1.0" class="cell_Q1 symbol "/>
      <path d="M 7.5 -7.5 L 30.0 -30.0 L 30.0 -30.0" style="stroke-width:1.0" class="cell_Q1 symbol "/>
      <path d="M 7.5 22.5 L 7.5 -22.5 L 7.5 -22.5" style="stroke-width:6.0" class="cell_Q1 symbol "/>
      <path d="M 30.0 72.0 L 30.0 30.0" style="stroke-width:1.0" class="cell_Q1 symbol"/>
      <text class="pin_num_text" text-anchor="end" x="30.0" y="30.0" transform="rotate(-90 30.0 30.0) translate(-6.0 -2.25)" style="font-size:15.0px"> 1 </text>
      <path d="M -72.0 0.0 L 7.5 0.0" style="stroke-width:1.0" class="cell_Q1 symbol"/>
      <text class="pin_num_text" text-anchor="end" x="7.5" y="0.0" transform="rotate(0 7.5 0.0) translate(-6.0 -2.25)" style="font-size:15.0px"> 2 </text>
      <path d="M 30.0 -72.0 L 30.0 -30.0" style="stroke-width:1.0" class="cell_Q1 symbol"/>
      <text class="pin_num_text" text-anchor="start" x="30.0" y="-30.0" transform="rotate(-90 30.0 -30.0) translate(6.0 -2.25)" style="font-size:15.0px"> 3 </text>
      <text class="part_ref_text" text-anchor="start" x="60.0" y="15.0" transform="rotate(0 60.0 15.0) translate(0.0 -7.5)" style="font-size:15.0px" s:attribute="ref">Q1</text>
      <text class="part_name_text" text-anchor="start" x="60.0" y="-15.0" transform="rotate(0 60.0 -15.0) translate(0.0 -7.5)" style="font-size:15.0px" s:attribute="value">Q_PNP_CBE</text>
    </g>
    <g s:x="102.0" s:y="144.0" s:pid="1" s:position="bottom"/>
    <g s:x="0.0" s:y="72.0" s:pid="2" s:position="left"/>
    <g s:x="102.0" s:y="0.0" s:pid="3" s:position="top"/>
  </g>
  <g s:type="Q_PNP_CBE_1_V" s:width="120.3" s:height="144.0" id="cell_Q2" transform="translate(119,358)">
    <s:alias val="Q_PNP_CBE_1_V"/>
    <g transform="translate(72.0,72.0)">
      <path d="M 27.0 -21.0 L 21.0 -27.0 L 15.0 -15.0 L 27.0 -21.0 L 27.0 -21.0" style="stroke-width:1.0" class="cell_Q2 symbol pen_fill"/>
      <circle cx="15.0" cy="0.0" r="33.3" style="stroke-width:3.0" class="cell_Q2 symbol "/>
      <path d="M 7.5 7.5 L 30.0 30.0" style="stroke-width:1.0" class="cell_Q2 symbol "/>
      <path d="M 7.5 -7.5 L 30.0 -30.0 L 30.0 -30.0" style="stroke-width:1.0" class="cell_Q2 symbol "/>
      <path d="M 7.5 22.5 L 7.5 -22.5 L 7.5 -22.5" style="stroke-width:6.0" class="cell_Q2 symbol "/>
      <path d="M 30.0 72.0 L 30.0 30.0" style="stroke-width:1.0" class="cell_Q2 symbol"/>
      <text class="pin_num_text" text-anchor="end" x="30.0" y="30.0" transform="rotate(-90 30.0 30.0) translate(-6.0 -2.25)" style="font-size:15.0px"> 1 </text>
      <path d="M -72.0 0.0 L 7.5 0.0" style="stroke-width:1.0" class="cell_Q2 symbol"/>
      <text class="pin_num_text" text-anchor="end" x="7.5" y="0.0" transform="rotate(0 7.5 0.0) translate(-6.0 -2.25)" style="font-size:15.0px"> 2 </text>
      <path d="M 30.0 -72.0 L 30.0 -30.0" style="stroke-width:1.0" class="cell_Q2 symbol"/>
      <text class="pin_num_text" text-anchor="start" x="30.0" y="-30.0" transform="rotate(-90 30.0 -30.0) translate(6.0 -2.25)" style="font-size:15.0px"> 3 </text>
      <text class="part_ref_text" text-anchor="start" x="60.0" y="15.0" transform="rotate(0 60.0 15.0) translate(0.0 -7.5)" style="font-size:15.0px" s:attribute="ref">Q2</text>
      <text class="part_name_text" text-anchor="start" x="60.0" y="-15.0" transform="rotate(0 60.0 -15.0) translate(0.0 -7.5)" style="font-size:15.0px" s:attribute="value">Q_PNP_CBE</text>
    </g>
    <g s:x="102.0" s:y="144.0" s:pid="1" s:position="bottom"/>
    <g s:x="0.0" s:y="72.0" s:pid="2" s:position="left"/>
    <g s:x="102.0" s:y="0.0" s:pid="3" s:position="top"/>
  </g>
  <g s:type="R_1_" s:width="24.0" s:height="114.0" id="cell_R1" transform="translate(12,18)">
    <s:alias val="R_1_"/>
    <g transform="translate(12.0,57.0)">
      <rect x="-12.0" y="-30.0" width="24.0" height="60.0" style="stroke-width:3.0" class="cell_R1 symbol "/>
      <path d="M 0.0 -57.0 L 0.0 -30.0" style="stroke-width:1.0" class="cell_R1 symbol"/>
      <path d="M 0.0 57.0 L 0.0 30.0" style="stroke-width:1.0" class="cell_R1 symbol"/>
      <text class="part_ref_text" text-anchor="middle" x="24.0" y="0.0" transform="rotate(-90 24.0 0.0) translate(0.0 7.5)" style="font-size:15.0px" s:attribute="ref">R1</text>
      <text class="part_name_text" text-anchor="middle" x="0.0" y="0.0" transform="rotate(-90 0.0 0.0) translate(0.0 7.5)" style="font-size:15.0px" s:attribute="value">10K</text>
    </g>
    <g s:x="12.0" s:y="0.0" s:pid="1" s:position="top"/>
    <g s:x="12.0" s:y="114.0" s:pid="2" s:position="bottom"/>
  </g>
  <g s:type="R_1_" s:width="24.0" s:height="114.0" id="cell_R2" transform="translate(92,18)">
    <s:alias val="R_1_"/>
    <g transform="translate(12.0,57.0)">
      <rect x="-12.0" y="-30.0" width="24.0" height="60.0" style="stroke-width:3.0" class="cell_R2 symbol "/>
      <path d="M 0.0 -57.0 L 0.0 -30.0" style="stroke-width:1.0" class="cell_R2 symbol"/>
      <path d="M 0.0 57.0 L 0.0 30.0" style="stroke-width:1.0" class="cell_R2 symbol"/>
      <text class="part_ref_text" text-anchor="middle" x="24.0" y="0.0" transform="rotate(-90 24.0 0.0) translate(0.0 7.5)" style="font-size:15.0px" s:attribute="ref">R2</text>
      <text class="part_name_text" text-anchor="middle" x="0.0" y="0.0" transform="rotate(-90 0.0 0.0) translate(0.0 7.5)" style="font-size:15.0px" s:attribute="value">10K</text>
    </g>
    <g s:x="12.0" s:y="0.0" s:pid="1" s:position="top"/>
    <g s:x="12.0" s:y="114.0" s:pid="2" s:position="bottom"/>
  </g>
  <g s:type="R_1_" s:width="24.0" s:height="114.0" id="cell_R3" transform="translate(332,213)">
    <s:alias val="R_1_"/>
    <g transform="translate(12.0,57.0)">
      <rect x="-12.0" y="-30.0" width="24.0" height="60.0" style="stroke-width:3.0" class="cell_R3 symbol "/>
      <path d="M 0.0 -57.0 L 0.0 -30.0" style="stroke-width:1.0" class="cell_R3 symbol"/>
      <path d="M 0.0 57.0 L 0.0 30.0" style="stroke-width:1.0" class="cell_R3 symbol"/>
      <text class="part_ref_text" text-anchor="middle" x="24.0" y="0.0" transform="rotate(-90 24.0 0.0) translate(0.0 7.5)" style="font-size:15.0px" s:attribute="ref">R3</text>
      <text class="part_name_text" text-anchor="middle" x="0.0" y="0.0" transform="rotate(-90 0.0 0.0) translate(0.0 7.5)" style="font-size:15.0px" s:attribute="value">10K</text>
    </g>
    <g s:x="12.0" s:y="0.0" s:pid="1" s:position="top"/>
    <g s:x="12.0" s:y="114.0" s:pid="2" s:position="bottom"/>
  </g>
  <g s:type="R_1_" s:width="24.0" s:height="114.0" id="cell_R4" transform="translate(252,203)">
    <s:alias val="R_1_"/>
    <g transform="translate(12.0,57.0)">
      <rect x="-12.0" y="-30.0" width="24.0" height="60.0" style="stroke-width:3.0" class="cell_R4 symbol "/>
      <path d="M 0.0 -57.0 L 0.0 -30.0" style="stroke-width:1.0" class="cell_R4 symbol"/>
      <path d="M 0.0 57.0 L 0.0 30.0" style="stroke-width:1.0" class="cell_R4 symbol"/>
      <text class="part_ref_text" text-anchor="middle" x="24.0" y="0.0" transform="rotate(-90 24.0 0.0) translate(0.0 7.5)" style="font-size:15.0px" s:attribute="ref">R4</text>
      <text class="part_name_text" text-anchor="middle" x="0.0" y="0.0" transform="rotate(-90 0.0 0.0) translate(0.0 7.5)" style="font-size:15.0px" s:attribute="value">10K</text>
    </g>
    <g s:x="12.0" s:y="0.0" s:pid="1" s:position="top"/>
    <g s:x="12.0" s:y="114.0" s:pid="2" s:position="bottom"/>
  </g>
  <g s:type="R_1_" s:width="24.0" s:height="114.0" id="cell_R5" transform="translate(383,223)">
    <s:alias val="R_1_"/>
    <g transform="translate(12.0,57.0)">
      <rect x="-12.0" y="-30.0" width="24.0" height="60.0" style="stroke-width:3.0" class="cell_R5 symbol "/>
      <path d="M 0.0 -57.0 L 0.0 -30.0" style="stroke-width:1.0" class="cell_R5 symbol"/>
      <path d="M 0.0 57.0 L 0.0 30.0" style="stroke-width:1.0" class="cell_R5 symbol"/>
      <text class="part_ref_text" text-anchor="middle" x="24.0" y="0.0" transform="rotate(-90 24.0 0.0) translate(0.0 7.5)" style="font-size:15.0px" s:attribute="ref">R5</text>
      <text class="part_name_text" text-anchor="middle" x="0.0" y="0.0" transform="rotate(-90 0.0 0.0) translate(0.0 7.5)" style="font-size:15.0px" s:attribute="value">10K</text>
    </g>
    <g s:x="12.0" s:y="0.0" s:pid="1" s:position="top"/>
    <g s:x="12.0" s:y="114.0" s:pid="2" s:position="bottom"/>
  </g>
  <line x1="344" x2="344" y1="327" y2="357" class="net_6"/>
  <line x1="395" x2="395" y1="337" y2="347" class="net_6"/>
  <line x1="395" x2="344" y1="347" y2="347" class="net_6"/>
  <circle cx="344" cy="347" r="2" style="fill:#000" class="net_6"/>
  <line x1="344" x2="344" y1="347" y2="357" class="net_6"/>
  <line x1="264" x2="242" y1="187" y2="187" class="net_5"/>
  <line x1="242" x2="242" y1="187" y2="317" class="net_5"/>
  <circle cx="264" cy="187" r="2" style="fill:#000" class="net_5"/>
  <line x1="242" x2="136" y1="317" y2="317" class="net_5"/>
  <line x1="264" x2="344" y1="187" y2="187" class="net_5"/>
  <line x1="344" x2="344" y1="187" y2="213" class="net_5"/>
  <line x1="264" x2="264" y1="187" y2="203" class="net_5"/>
  <line x1="181" x2="181" y1="153" y2="173" class="net_2"/>
  <line x1="181" x2="136" y1="173" y2="173" class="net_2"/>
  <line x1="181" x2="181" y1="153" y2="163" class="net_2"/>
  <line x1="181" x2="231" y1="163" y2="163" class="net_2"/>
  <line x1="231" x2="231" y1="163" y2="358" class="net_2"/>
  <circle cx="181" cy="163" r="2" style="fill:#000" class="net_2"/>
  <line x1="231" x2="221" y1="358" y2="358" class="net_2"/>
  <line x1="372" x2="241" y1="207" y2="337" class="net_4"/>
  <line x1="241" x2="241" y1="337" y2="502" class="net_4"/>
  <line x1="241" x2="221" y1="502" y2="502" class="net_4"/>
  <line x1="372" x2="395" y1="207" y2="207" class="net_4"/>
  <line x1="395" x2="395" y1="207" y2="223" class="net_4"/>
  <line x1="24" x2="24" y1="132" y2="245" class="net_1"/>
  <line x1="24" x2="34" y1="245" y2="245" class="net_1"/>
  <line x1="104" x2="104" y1="132" y2="142" class="net_1"/>
  <line x1="104" x2="24" y1="142" y2="142" class="net_1"/>
  <line x1="24" x2="24" y1="142" y2="245" class="net_1"/>
  <circle cx="24" cy="142" r="2" style="fill:#000" class="net_1"/>
  <line x1="24" x2="34" y1="245" y2="245" class="net_1"/>
  <line x1="264" x2="264" y1="317" y2="327" class="net_3"/>
  <line x1="264" x2="109" y1="327" y2="327" class="net_3"/>
  <line x1="109" x2="109" y1="327" y2="430" class="net_3"/>
  <line x1="109" x2="119" y1="430" y2="430" class="net_3"/>
</svg>
